<svg id="mastodon-svg-logo-full" xmlns="http://www.w3.org/2000/svg" xmlns:xlink="http://www.w3.org/1999/xlink" version="1.1" x="0px" y="0px" viewBox="0 0 580.93 170.04" style="enable-background:new 0 0 580.93 170.04;" xml:space="preserve">
<style type="text/css">
	.st0{fill:url(#SVGID_1_);}
	.st1{opacity:0.71;fill:url(#tex11_2_);enable-background:new    ;}
	.st2{opacity:0.71;fill:url(#tex10_2_);enable-background:new    ;}
	.st3{opacity:0.71;fill:url(#tex09_2_);enable-background:new    ;}
	.st4{opacity:0.71;fill:url(#tex08_2_);enable-background:new    ;}
	.st5{opacity:0.71;fill:url(#tex07_2_);enable-background:new    ;}
	.st6{opacity:0.71;fill:url(#tex06_2_);enable-background:new    ;}
	.st7{opacity:0.71;fill:url(#tex05_2_);enable-background:new    ;}
	.st8{opacity:0.71;fill:url(#tex04_2_);enable-background:new    ;}
	.st9{opacity:0.71;fill:url(#tex03_2_);enable-background:new    ;}
	.st10{opacity:0.71;fill:url(#tex02_2_);enable-background:new    ;}
	.st11{opacity:0.71;fill:url(#tex01_2_);enable-background:new    ;}
	.st12{filter:url(#Adobe_OpacityMaskFilter);}
	.st13{fill:url(#SVGID_2_);}
	.st14{mask:url(#big-lines_2_);}
	.st15{fill:url(#bigline17_2_);}
	.st16{fill:url(#bigline16_2_);}
	.st17{fill:url(#bigline15_2_);}
	.st18{fill:url(#bigline14_1_);}
	.st19{fill:url(#bigline12_2_);}
	.st20{fill:url(#bigline11_1_);}
	.st21{fill:url(#bigline10_2_);}
	.st22{fill:url(#bigline09_2_);}
	.st23{fill:url(#bigline08_2_);}
	.st24{fill:url(#bigline07_2_);}
	.st25{fill:url(#bigline06_2_);}
	.st26{fill:url(#bigline03_2_);}
	.st27{fill:url(#bigline02_2_);}
	.st28{fill:url(#bigline01_2_);}
	.st29{fill:url(#bigline05_2_);}
	.st30{opacity:0.6;fill:#FFFFFF;}
	.st31{fill:#FFFFFF;}
</style>
<g id="BitTube_x5F_Grey">
</g>
<g id="BitTube">
	<g>
		<linearGradient id="SVGID_1_" gradientUnits="userSpaceOnUse" x1="138.9703" y1="27.378" x2="30.0312" y2="144.756">
			<stop offset="0" style="stop-color:#28D1BC"></stop>
			<stop offset="0.6007" style="stop-color:#00ABFF"></stop>
			<stop offset="1" style="stop-color:#2A5ED6"></stop>
		</linearGradient>
		<path class="st0" d="M142.359,28.148c-15.246-15.244-35.515-23.64-57.072-23.64c-21.559,0-41.827,8.396-57.072,23.64    S4.575,63.661,4.575,85.22c0,21.561,8.396,41.829,23.64,57.072c15.242,15.244,35.511,23.64,57.072,23.64    c21.561,0,41.829-8.396,57.072-23.64c15.244-15.244,23.64-35.513,23.64-57.072C165.999,63.663,157.603,43.395,142.359,28.148z"></path>
	</g>
	<g id="backtexture_1_">
		<linearGradient id="tex11_2_" gradientUnits="userSpaceOnUse" x1="-2.0594" y1="-58.7076" x2="43.7908" y2="67.8249">
			<stop offset="0.5749" style="stop-color:#FFFFFF"></stop>
			<stop offset="1" style="stop-color:#FFFFFF;stop-opacity:0"></stop>
		</linearGradient>
		<path id="tex11_1_" class="st1" d="M9.662,56.913l16.382,22.646l27.344-68.521c-9.281,3.993-17.814,9.751-25.173,17.11    C19.916,36.447,13.652,46.238,9.662,56.913z"></path>
		
			<linearGradient id="tex10_2_" gradientUnits="userSpaceOnUse" x1="0.2891" y1="-285.9025" x2="47.3584" y2="-319.664" gradientTransform="matrix(1 0 0 -1 0 -227.4498)">
			<stop offset="0" style="stop-color:#FFFFFF"></stop>
			<stop offset="1" style="stop-color:#FFFFFF;stop-opacity:0"></stop>
		</linearGradient>
		<path id="tex10_1_" class="st2" d="M8.288,60.834c-2.421,7.748-3.713,15.82-3.713,24.214c0,4.52,0.323,8.878,1.13,13.237    l12.591,16.142l59.53-43.417L8.288,60.834z"></path>
		
			<linearGradient id="tex09_2_" gradientUnits="userSpaceOnUse" x1="141.4527" y1="-233.0155" x2="105.9731" y2="-255.7971" gradientTransform="matrix(1 0 0 -1 0 -227.4498)">
			<stop offset="0" style="stop-color:#FFFFFF"></stop>
			<stop offset="1" style="stop-color:#FFFFFF;stop-opacity:0"></stop>
		</linearGradient>
		<path id="tex09_1_" class="st3" d="M70.436,14.021l44.553,45.683l14.367-42.293c-9.363-6.134-19.855-10.17-30.993-11.945    L70.436,14.021z"></path>
		
			<linearGradient id="tex08_2_" gradientUnits="userSpaceOnUse" x1="101.3302" y1="791.5585" x2="77.2366" y2="814.4353" gradientTransform="matrix(1 0 0 1 0 -742)">
			<stop offset="0" style="stop-color:#FFFFFF"></stop>
			<stop offset="1" style="stop-color:#FFFFFF;stop-opacity:0"></stop>
		</linearGradient>
		<polygon id="tex08_1_" class="st4" points="73.648,79.323 115.296,80.291 70.743,34.608   "></polygon>
		<linearGradient id="tex07_2_" gradientUnits="userSpaceOnUse" x1="177.6596" y1="136.2986" x2="133.2311" y2="58.9338">
			<stop offset="0" style="stop-color:#FFFFFF"></stop>
			<stop offset="1" style="stop-color:#FFFFFF;stop-opacity:0"></stop>
		</linearGradient>
		<path id="tex07_1_" class="st5" d="M160.963,113.39c3.306-8.894,5.036-18.398,5.036-28.17c0-0.325-0.008-0.65-0.012-0.975    l-50.343-24.21L160.963,113.39z"></path>
		
			<linearGradient id="tex06_2_" gradientUnits="userSpaceOnUse" x1="49.4507" y1="774.1808" x2="83.4479" y2="774.1808" gradientTransform="matrix(1 0 0 1 0 -742)">
			<stop offset="0" style="stop-color:#FFFFFF"></stop>
			<stop offset="1" style="stop-color:#FFFFFF;stop-opacity:0"></stop>
		</linearGradient>
		<polygon id="tex06_1_" class="st6" points="49.451,30.163 77.538,49.211 83.511,15.151   "></polygon>
		<linearGradient id="tex05_2_" gradientUnits="userSpaceOnUse" x1="168.9407" y1="77.8062" x2="155.5697" y2="79.9757">
			<stop offset="0" style="stop-color:#FFFFFF"></stop>
			<stop offset="1" style="stop-color:#FFFFFF;stop-opacity:0"></stop>
		</linearGradient>
		<path id="tex05_1_" class="st7" d="M162.732,62.376l-8.574-2.027l5.973,38.742l5.374-4.913c0.324-2.954,0.494-5.943,0.494-8.958    C165.999,77.374,164.881,69.7,162.732,62.376z"></path>
		<linearGradient id="tex04_2_" gradientUnits="userSpaceOnUse" x1="136.6719" y1="170.5154" x2="129.0534" y2="133.2691">
			<stop offset="0" style="stop-color:#FFFFFF"></stop>
			<stop offset="1" style="stop-color:#FFFFFF;stop-opacity:0"></stop>
		</linearGradient>
		<path id="tex04_1_" class="st8" d="M122.411,142.44l4.426,12.012c4.632-2.791,9.006-6.071,13.063-9.807L122.411,142.44z"></path>
		<linearGradient id="tex03_2_" gradientUnits="userSpaceOnUse" x1="203.3024" y1="130.8361" x2="110.2987" y2="132.6132">
			<stop offset="0" style="stop-color:#FFFFFF"></stop>
			<stop offset="1" style="stop-color:#FFFFFF;stop-opacity:0"></stop>
		</linearGradient>
		<path id="tex03_1_" class="st9" d="M145.716,138.72c3.792-4.272,7.091-8.879,9.859-13.756l-45.775,4.481L145.716,138.72z"></path>
		
			<linearGradient id="tex02_2_" gradientUnits="userSpaceOnUse" x1="98.9054" y1="842.0522" x2="66.2464" y2="890.8613" gradientTransform="matrix(1 0 0 1 0 -742)">
			<stop offset="0" style="stop-color:#FFFFFF"></stop>
			<stop offset="1" style="stop-color:#FFFFFF;stop-opacity:0"></stop>
		</linearGradient>
		<path id="tex02_1_" class="st10" d="M122.253,142.03l-90.882-17.918l11.623,29.702c2.583,1.614,5.327,3.067,8.233,4.358    L122.253,142.03z"></path>
		
			<linearGradient id="tex01_2_" gradientUnits="userSpaceOnUse" x1="-611.6835" y1="-3959.3328" x2="-577.6686" y2="-3959.3328" gradientTransform="matrix(-0.7827 0.6224 -0.6224 -0.7827 -2812.1836 -2620.2524)">
			<stop offset="0" style="stop-color:#FFFFFF"></stop>
			<stop offset="1" style="stop-color:#FFFFFF;stop-opacity:0"></stop>
		</linearGradient>
		<polygon id="tex01_1_" class="st11" points="132.245,99.582 98.346,102.003 114.973,132.512   "></polygon>
	</g>
	<defs>
		<filter id="Adobe_OpacityMaskFilter" filterUnits="userSpaceOnUse" x="14.751" y="32.094" width="137.049" height="102.02">
			<feFlood style="flood-color:white;flood-opacity:1" result="back"></feFlood>
			<feBlend in="SourceGraphic" in2="back" mode="normal"></feBlend>
		</filter>
	</defs>
	<mask maskUnits="userSpaceOnUse" x="14.751" y="32.094" width="137.049" height="102.02" id="big-lines_2_">
		<g class="st12">
			<radialGradient id="SVGID_2_" cx="85.2868" cy="85.22" r="80.712" gradientUnits="userSpaceOnUse">
				<stop offset="0.0017" style="stop-color:#000000"></stop>
				<stop offset="0.088" style="stop-color:#0B0B0B;stop-opacity:0.9135"></stop>
				<stop offset="0.2409" style="stop-color:#292929;stop-opacity:0.7604"></stop>
				<stop offset="0.4423" style="stop-color:#5A5A5A;stop-opacity:0.5587"></stop>
				<stop offset="0.6847" style="stop-color:#9D9D9D;stop-opacity:0.3158"></stop>
				<stop offset="0.9591" style="stop-color:#F2F2F2;stop-opacity:0.041"></stop>
				<stop offset="1" style="stop-color:#FFFFFF;stop-opacity:0"></stop>
			</radialGradient>
			<circle class="st13" cx="85.287" cy="85.22" r="80.712"></circle>
		</g>
	</mask>
	<g id="big-lines_1_" class="st14">
		
			<linearGradient id="bigline17_2_" gradientUnits="userSpaceOnUse" x1="51.034" y1="-291.4249" x2="86.5733" y2="-291.4249" gradientTransform="matrix(1 0 0 -1 0 -227.4498)">
			<stop offset="0" style="stop-color:#FFFFFF"></stop>
			<stop offset="1" style="stop-color:#FFFFFF;stop-opacity:0"></stop>
		</linearGradient>
		<path id="bigline17_1_" class="st15" d="M55.107,40.972v1.13c0,0.161,0,0.161-0.161,0.323l-3.067,1.291c0,0,0,0-0.161,0    c-0.161,0,0,0-0.161,0l-0.646-0.323L82.71,86.978l3.874-2.744L55.107,40.972z"></path>
		
			<linearGradient id="bigline16_2_" gradientUnits="userSpaceOnUse" x1="113.6949" y1="-288.3578" x2="82.6231" y2="-288.3578" gradientTransform="matrix(1 0 0 -1 0 -227.4498)">
			<stop offset="0" style="stop-color:#FFFFFF"></stop>
			<stop offset="1" style="stop-color:#FFFFFF;stop-opacity:0"></stop>
		</linearGradient>
		<path id="bigline16_1_" class="st16" d="M110.16,36.801L110.152,35L82.71,84.557l4.036,2.26l26.993-48.469L110.16,36.801z"></path>
		
			<linearGradient id="bigline15_2_" gradientUnits="userSpaceOnUse" x1="136.3032" y1="-287.0664" x2="82.549" y2="-287.0664" gradientTransform="matrix(1 0 0 -1 0 -227.4498)">
			<stop offset="0" style="stop-color:#FFFFFF"></stop>
			<stop offset="1" style="stop-color:#FFFFFF;stop-opacity:0"></stop>
		</linearGradient>
		<path id="bigline15_1_" class="st17" d="M133.108,34.119l-0.034-2.025L82.549,83.911l3.39,3.228l50.364-51.656L133.108,34.119z"></path>
		
			<linearGradient id="bigline14_1_" gradientUnits="userSpaceOnUse" x1="151.7999" y1="-300.3839" x2="83.3829" y2="-300.3839" gradientTransform="matrix(1 0 0 -1 0 -227.4498)">
			<stop offset="0" style="stop-color:#FFFFFF"></stop>
			<stop offset="1" style="stop-color:#FFFFFF;stop-opacity:0"></stop>
		</linearGradient>
		<path id="bigline14_2_" class="st18" d="M150.024,61.634c-0.161,0-0.161-0.161-0.161-0.323v-3.228L83.518,83.427l1.614,4.358    L151.8,62.28L150.024,61.634z"></path>
		
			<linearGradient id="bigline12_2_" gradientUnits="userSpaceOnUse" x1="21.411" y1="-296.0255" x2="85.8191" y2="-296.0255" gradientTransform="matrix(1 0 0 -1 0 -227.4498)">
			<stop offset="0" style="stop-color:#FFFFFF"></stop>
			<stop offset="1" style="stop-color:#FFFFFF;stop-opacity:0"></stop>
		</linearGradient>
		<path id="bigline12_1_" class="st19" d="M23.629,49.689v2.906c0,0.161-0.161,0.323-0.161,0.323l-1.937,0.807l62.148,33.738    l2.26-4.197L23.629,49.689z"></path>
		
			<linearGradient id="bigline11_1_" gradientUnits="userSpaceOnUse" x1="32.3739" y1="-314.105" x2="84.7385" y2="-314.105" gradientTransform="matrix(1 0 0 -1 0 -227.4498)">
			<stop offset="0" style="stop-color:#FFFFFF"></stop>
			<stop offset="1" style="stop-color:#FFFFFF;stop-opacity:0"></stop>
		</linearGradient>
		<path id="bigline11_2_" class="st20" d="M32.444,85.364c0.161,0,0.161,0.323,0.161,0.323v4.036c0,0.161-0.161,0.323-0.161,0.323    l52.365-2.099l-0.161-4.681L32.444,85.364z"></path>
		
			<linearGradient id="bigline10_2_" gradientUnits="userSpaceOnUse" x1="14.7509" y1="-322.0147" x2="85.2932" y2="-322.0147" gradientTransform="matrix(1 0 0 -1 0 -227.4498)">
			<stop offset="0" style="stop-color:#FFFFFF"></stop>
			<stop offset="1" style="stop-color:#FFFFFF;stop-opacity:0"></stop>
		</linearGradient>
		<path id="bigline10_1_" class="st21" d="M16.953,102.452c0.058,0.022,0.377,0.09,0.381,0.345l0,0l0,0v3.067l67.96-18.079    l-1.453-4.52l-69.089,18.402C14.751,101.668,16.895,102.43,16.953,102.452z"></path>
		
			<linearGradient id="bigline09_2_" gradientUnits="userSpaceOnUse" x1="57.1522" y1="-323.9115" x2="86.2313" y2="-323.9115" gradientTransform="matrix(1 0 0 -1 0 -227.4498)">
			<stop offset="0" style="stop-color:#FFFFFF"></stop>
			<stop offset="1" style="stop-color:#FFFFFF;stop-opacity:0"></stop>
		</linearGradient>
		<path id="bigline09_1_" class="st22" d="M59.304,104.829v3.134l26.958-19.29l-2.906-3.713l-26.139,18.672L59.304,104.829z"></path>
		
			<linearGradient id="bigline08_2_" gradientUnits="userSpaceOnUse" x1="59.2441" y1="-302.321" x2="85.879" y2="-302.321" gradientTransform="matrix(1 0 0 -1 0 -227.4498)">
			<stop offset="0" style="stop-color:#FFFFFF"></stop>
			<stop offset="1" style="stop-color:#FFFFFF;stop-opacity:0"></stop>
		</linearGradient>
		<path id="bigline08_1_" class="st23" d="M62.371,62.28v1.937c0,0.161-0.161,0.323-0.161,0.323l-2.906,1.291L82.71,87.462    l3.228-3.39L62.371,62.28z"></path>
		
			<linearGradient id="bigline07_2_" gradientUnits="userSpaceOnUse" x1="95.8744" y1="-298.9311" x2="82.4328" y2="-298.9311" gradientTransform="matrix(1 0 0 -1 0 -227.4498)">
			<stop offset="0" style="stop-color:#FFFFFF"></stop>
			<stop offset="1" style="stop-color:#FFFFFF;stop-opacity:0"></stop>
		</linearGradient>
		<path id="bigline07_1_" class="st24" d="M94.656,57.922C94.656,57.922,94.494,57.922,94.656,57.922c-0.161,0-0.161,0-0.323,0    l-3.067-1.291l0,0L82.549,84.88l4.52,1.453l8.878-28.895L94.656,57.922z"></path>
		
			<linearGradient id="bigline06_2_" gradientUnits="userSpaceOnUse" x1="110.1982" y1="-310.2308" x2="86.8224" y2="-310.2308" gradientTransform="matrix(1 0 0 -1 0 -227.4498)">
			<stop offset="0" style="stop-color:#FFFFFF"></stop>
			<stop offset="1" style="stop-color:#FFFFFF;stop-opacity:0"></stop>
		</linearGradient>
		<path id="bigline06_1_" class="st25" d="M109.184,77.938l-22.277,5.166l1.13,4.52l22.277-5.166L109.184,77.938z"></path>
		
			<linearGradient id="bigline03_2_" gradientUnits="userSpaceOnUse" x1="140.1774" y1="-336.3815" x2="82.7104" y2="-336.3815" gradientTransform="matrix(1 0 0 -1 0 -227.4498)">
			<stop offset="0" style="stop-color:#FFFFFF"></stop>
			<stop offset="1" style="stop-color:#FFFFFF;stop-opacity:0"></stop>
		</linearGradient>
		<path id="bigline03_1_" class="st26" d="M136.787,132.177L136.787,132.177L136.787,132.177L136.787,132.177l3.228-0.969    c0,0,0,0,0.161,0l-54.4-47.459l-3.067,3.551l53.754,46.813V132.5C136.465,132.5,136.448,132.261,136.787,132.177z"></path>
		
			<linearGradient id="bigline02_2_" gradientUnits="userSpaceOnUse" x1="97.1065" y1="-336.3008" x2="82.2807" y2="-336.3008" gradientTransform="matrix(1 0 0 -1 0 -227.4498)">
			<stop offset="0" style="stop-color:#FFFFFF"></stop>
			<stop offset="1" style="stop-color:#FFFFFF;stop-opacity:0"></stop>
		</linearGradient>
		<path id="bigline02_1_" class="st27" d="M92.396,133.145l3.228-0.969h0.161l1.13,0.323L86.907,84.557l-4.52,0.969L92.396,133.145    L92.396,133.145z"></path>
		
			<linearGradient id="bigline01_2_" gradientUnits="userSpaceOnUse" x1="133.3478" y1="-309.8272" x2="83.9521" y2="-309.8272" gradientTransform="matrix(1 0 0 -1 0 -227.4498)">
			<stop offset="0" style="stop-color:#FFFFFF"></stop>
			<stop offset="1" style="stop-color:#FFFFFF;stop-opacity:0"></stop>
		</linearGradient>
		<path id="bigline01_1_" class="st28" d="M109.184,79.875l-25.182,3.39l0.646,4.681l48.75-6.618l-0.646-0.161    c-0.161,0-0.161-0.161-0.161-0.323v-4.036l0,0l0,0l0,0L109.184,79.875"></path>
		
			<linearGradient id="bigline05_2_" gradientUnits="userSpaceOnUse" x1="126.3734" y1="839.1384" x2="84.024" y2="839.1384" gradientTransform="matrix(1 0 0 1 0 -742)">
			<stop offset="0" style="stop-color:#FFFFFF"></stop>
			<stop offset="1" style="stop-color:#FFFFFF;stop-opacity:0"></stop>
		</linearGradient>
		<path id="bigline05_1_" class="st29" d="M124.202,107.07L124.202,107.07L124.202,107.07c0-0.158,0-0.158,0.158-0.315l0,0l0,0l0,0    l1.892-0.631L86.209,84.054l-2.207,3.941l40.2,22.228C124.202,110.223,124.202,107.07,124.202,107.07z"></path>
	</g>
	<path id="lines_1_" class="st30" d="M31.535,43.479h0.004c0.046,0,0.084-0.036,0.085-0.082l0.806-19.176   c-0.06,0.052-0.118,0.105-0.178,0.157L31.454,43.39C31.451,43.437,31.488,43.477,31.535,43.479z M35.575,44.609   c0.009,0,0.019-0.002,0.028-0.005l12.914-4.52c0.044-0.016,0.068-0.065,0.052-0.109c-0.016-0.045-0.065-0.068-0.109-0.053   l-12.914,4.52c-0.044,0.016-0.068,0.065-0.052,0.109C35.506,44.587,35.539,44.609,35.575,44.609z M29.598,84.319h0.004   c0.046,0,0.084-0.036,0.085-0.082l1.453-34.544c0.002-0.047-0.035-0.087-0.082-0.089h-0.004c-0.046,0-0.084,0.036-0.085,0.082   L29.517,84.23C29.515,84.277,29.551,84.317,29.598,84.319z M91.104,52.519c0.036,0,0.069-0.022,0.081-0.058   c0.015-0.045-0.008-0.094-0.053-0.109L55.135,39.923c-0.045-0.016-0.093,0.008-0.109,0.053c-0.015,0.045,0.008,0.094,0.053,0.109   l35.997,12.429C91.085,52.517,91.095,52.519,91.104,52.519z M138.408,28.675c0.03,0,0.06-0.017,0.076-0.046l1.462-2.791   c-0.043-0.04-0.086-0.081-0.13-0.121l-1.483,2.832c-0.022,0.042-0.006,0.094,0.036,0.116   C138.381,28.672,138.394,28.675,138.408,28.675z M49.54,42.713l-18.887,41.97c-0.019,0.043,0,0.094,0.043,0.113   c0.012,0.005,0.023,0.008,0.035,0.008c0.033,0,0.064-0.019,0.078-0.05l18.887-41.97c0.019-0.043,0-0.094-0.043-0.113   C49.61,42.65,49.56,42.67,49.54,42.713z M50.519,37.311c0.017,0.022,0.042,0.034,0.068,0.034c0.018,0,0.037-0.006,0.052-0.018   c0.038-0.028,0.045-0.082,0.016-0.12L37.581,20.099c-0.046,0.034-0.092,0.066-0.138,0.1c0,0.001,0,0.001,0,0.002L50.519,37.311z    M115.96,79.144c-0.047,0.002-0.084,0.042-0.083,0.089c0.002,0.046,0.04,0.082,0.086,0.082h0.003l16.342-0.646   c0.047-0.002,0.084-0.042,0.083-0.089c-0.002-0.047-0.039-0.087-0.089-0.082L115.96,79.144z M124.347,32.07   c-2.471,0.256-5.026,0.521-7.423,0.746c-0.047,0.004-0.081,0.046-0.077,0.093c0.004,0.045,0.042,0.078,0.085,0.078   c0.003,0,0.005,0,0.008-0.001c2.398-0.225,4.954-0.49,7.425-0.747c2.882-0.299,5.863-0.608,8.718-0.868   c0.047-0.004,0.081-0.046,0.077-0.093c-0.005-0.047-0.048-0.086-0.093-0.077C130.211,31.461,127.23,31.77,124.347,32.07z    M155.645,56.711c0.009,0.004,0.019,0.005,0.029,0.005c0.035,0,0.068-0.022,0.08-0.057l2.302-6.438   c-0.035-0.072-0.07-0.143-0.105-0.215l-2.358,6.595C155.577,56.646,155.601,56.695,155.645,56.711z M71.488,20.648   c0.001,0.004,0.006,0.006,0.008,0.01c0.006,0.018,0.017,0.032,0.033,0.043c0.004,0.003,0.004,0.008,0.008,0.01l57.808,26.763   l-15.071,29.457c-0.022,0.042-0.005,0.094,0.037,0.115c0.013,0.006,0.026,0.009,0.039,0.009c0.031,0,0.061-0.017,0.076-0.047   L129.5,47.546l10.051,4.653l-1.708,14.92l-21.917,10.743c-0.042,0.02-0.06,0.072-0.039,0.115c0.015,0.03,0.045,0.048,0.077,0.048   c0.013,0,0.026-0.003,0.038-0.009l21.818-10.694l-0.956,8.348c-0.005,0.047,0.028,0.09,0.075,0.095c0.004,0,0.007,0.001,0.01,0.001   c0.043,0,0.08-0.032,0.085-0.076l0.968-8.457l11.625-5.698c0.042-0.02,0.06-0.072,0.039-0.115c-0.02-0.042-0.072-0.059-0.115-0.039   l-11.526,5.65l1.689-14.755l10.274,4.756c0.012,0.005,0.024,0.008,0.036,0.008c0.032,0,0.063-0.018,0.078-0.05   c0.02-0.043,0.001-0.094-0.042-0.114l-10.325-4.78l1.15-10.046l11.062,2.544l0.652,10.9c0.003,0.045,0.04,0.08,0.086,0.08h0.005   c0.047-0.003,0.083-0.044,0.08-0.091l-0.649-10.85l3.421,0.787c-0.039-0.068-0.08-0.135-0.118-0.203l-3.313-0.762l-0.297-4.964   c-0.063-0.091-0.125-0.183-0.188-0.274l0.311,5.198l-11.032-2.537l1.559-13.622c-0.036-0.036-0.07-0.072-0.105-0.108   c-0.016-0.016-0.033-0.032-0.049-0.048l-1.573,13.739l-7.441-1.711l2.439-4.766c0.022-0.042,0.005-0.094-0.037-0.115   c-0.042-0.021-0.094-0.005-0.115,0.037l-2.458,4.805l-16.172-3.719c-0.044-0.008-0.091,0.018-0.102,0.065   c-0.011,0.046,0.018,0.092,0.065,0.102l16.13,3.71l-3.62,7.076L72.707,21.064l37.421,11.273c0.008,0.003,0.017,0.004,0.025,0.004   c0.037,0,0.071-0.024,0.082-0.061c0.014-0.045-0.012-0.093-0.057-0.107L72.153,20.719h39.699l1.282,10.579   c0.005,0.046,0.04,0.074,0.096,0.075c0.047-0.006,0.08-0.048,0.075-0.096l-1.28-10.558h13.799l-6.208,6.311   c-0.033,0.034-0.033,0.088,0.001,0.121c0.017,0.016,0.038,0.025,0.06,0.025c0.022,0,0.044-0.008,0.061-0.026l6.326-6.431h7.756   c-0.075-0.057-0.15-0.115-0.225-0.171h-7.363l3.001-3.051c-0.049-0.032-0.097-0.064-0.146-0.095l-3.094,3.146h-13.99l-1.73-12.113   c-0.06-0.02-0.121-0.038-0.181-0.057l1.738,12.17H71.78L87.932,4.555c-0.078-0.002-0.157-0.006-0.235-0.009L71.512,20.572   c-0.002,0.002-0.001,0.006-0.003,0.009c-0.01,0.012-0.019,0.024-0.022,0.04c-0.001,0.006,0.003,0.011,0.004,0.017   C71.491,20.641,71.487,20.644,71.488,20.648z M133.215,40.285l7.502,1.725l-1.146,10.009l-9.993-4.626L133.215,40.285z    M91.911,51.873c0.024,0,0.047-0.01,0.064-0.029c0.032-0.036,0.028-0.09-0.007-0.121L48.426,13.378   c-0.054,0.028-0.108,0.056-0.163,0.084l43.591,38.389C91.871,51.866,91.891,51.873,91.911,51.873z M62.371,60.59   c0.006,0,0.012-0.001,0.017-0.002l28.733-5.972c0.046-0.009,0.076-0.055,0.066-0.101c-0.009-0.047-0.055-0.078-0.101-0.066   l-28.733,5.972c-0.046,0.009-0.076,0.055-0.066,0.101C62.296,60.562,62.331,60.59,62.371,60.59z M27.561,90.754   c0.035-0.032,0.037-0.086,0.005-0.121c-0.033-0.035-0.087-0.038-0.121-0.005c-2.015,1.854-4.022,3.738-5.963,5.561   c-1.948,1.828-3.961,3.719-5.982,5.578c-0.035,0.032-0.037,0.086-0.005,0.121c0.017,0.018,0.04,0.028,0.063,0.028   c0.021,0,0.042-0.007,0.058-0.023c2.022-1.86,4.036-3.751,5.984-5.579C23.54,94.491,25.547,92.606,27.561,90.754z M54.674,110.155   c-0.039-0.028-0.092-0.02-0.12,0.017l-25.058,33.371c0.041,0.04,0.082,0.081,0.123,0.121l25.071-33.388   C54.719,110.237,54.712,110.183,54.674,110.155z M140.672,137.742c-0.055,0-0.09,0.028-0.095,0.075l-0.808,6.95   c0.065-0.059,0.129-0.12,0.193-0.18l0.785-6.751C140.752,137.789,140.718,137.747,140.672,137.742z M92.184,133.537   c0.038,0.027,0.092,0.019,0.12-0.019c0.028-0.038,0.019-0.092-0.019-0.12l-18.15-13.245l44.962-29.855l8.737,15.385   c0.001,0.002,0.005,0.002,0.007,0.004c0.01,0.015,0.023,0.029,0.042,0.036c0.008,0.003,0.017,0.004,0.026,0.004   c0.014,0,0.029-0.004,0.042-0.011c0.001-0.001,0.001-0.003,0.003-0.003c0.016-0.01,0.03-0.025,0.037-0.045l7.588-23.346   c0.015-0.045-0.01-0.093-0.055-0.108c-0.043-0.014-0.092,0.01-0.108,0.055l-7.528,23.161l-8.647-15.227l13.352-8.866   c0.039-0.026,0.05-0.079,0.024-0.119c-0.027-0.039-0.079-0.049-0.119-0.024l-13.342,8.859l-4.246-7.478   c-0.023-0.04-0.076-0.055-0.117-0.033c-0.042,0.024-0.056,0.076-0.033,0.117l4.253,7.489l-45.025,29.896l-5.503-4.016   l41.238-33.668c0.037-0.03,0.042-0.084,0.012-0.12c-0.029-0.036-0.084-0.043-0.12-0.012l-41.273,33.696l-9.148-6.741   c-0.038-0.028-0.091-0.019-0.12,0.018c-0.028,0.038-0.02,0.092,0.018,0.12l9.113,6.715l-36.24,29.769   c0.043,0.038,0.087,0.077,0.13,0.115l36.253-29.779l5.488,4.005l-40.467,26.87c0.046,0.038,0.091,0.077,0.137,0.115l40.478-26.877   L92.184,133.537z M92.318,136.84c-0.009-0.046-0.053-0.078-0.101-0.066l-56.676,12.017c0.058,0.045,0.114,0.093,0.172,0.138   l56.539-11.988C92.299,136.932,92.328,136.887,92.318,136.84z M158.982,85.724l6.964,2.293c0.002-0.06,0.005-0.119,0.007-0.178   l-6.809-2.242l6.702-5.324c-0.004-0.069-0.008-0.138-0.013-0.208l-6.883,5.468l-5.545-1.826l0.311-8.841l11.147-3.246   c-0.01-0.057-0.018-0.114-0.027-0.17l-11.113,3.236l0.424-12.08c0.002-0.047-0.035-0.087-0.083-0.089   c-0.046-0.007-0.087,0.035-0.089,0.083l-0.426,12.137l-14.04,4.088c-0.045,0.013-0.071,0.06-0.058,0.106   c0.011,0.037,0.045,0.061,0.082,0.061c0.008,0,0.016-0.001,0.024-0.004l13.986-4.072l-0.307,8.735l-13.676-4.503   c-0.045-0.013-0.093,0.01-0.108,0.055c-0.015,0.045,0.01,0.094,0.055,0.108l13.724,4.519l-0.226,6.427l-21.595,17.155   c-0.037,0.029-0.043,0.083-0.014,0.12c0.017,0.022,0.042,0.033,0.067,0.033c0.019,0,0.037-0.006,0.053-0.019l21.481-17.065   l-0.598,17.033l-5.281,5.764l-15.635-3.622c-0.048-0.008-0.092,0.018-0.103,0.064c-0.01,0.046,0.018,0.092,0.064,0.103l15.541,3.6   l-5.867,6.403l-5.928,3.239l-5.425-10.942c-0.022-0.043-0.072-0.059-0.115-0.039c-0.043,0.021-0.06,0.073-0.039,0.115l5.428,10.948   l-18.323,10.012l7.231-19.567l1.919-1.526c0.037-0.029,0.043-0.083,0.014-0.12c-0.029-0.038-0.083-0.043-0.12-0.014l-1.699,1.351   l0.702-1.9c0.016-0.044-0.006-0.094-0.051-0.11c-0.042-0.016-0.093,0.006-0.11,0.051l-0.8,2.165L98.961,133.24   c-0.037,0.029-0.043,0.083-0.014,0.12c0.017,0.022,0.042,0.033,0.067,0.033c0.019,0,0.037-0.006,0.053-0.019l24.619-19.576   l-7.202,19.487l-42.031,22.967l-3.634-0.407l22.275-17.627c0.037-0.029,0.043-0.084,0.014-0.12   c-0.029-0.037-0.082-0.043-0.12-0.014l-22.438,17.757c-0.027,0.022-0.039,0.057-0.029,0.091c0.008,0.026,0.033,0.039,0.058,0.049   l-29.602-3.271c0.106,0.07,0.212,0.138,0.319,0.208l29.09,3.214l-4.267,3.347l-20.841-4.461c-0.046-0.012-0.092,0.019-0.101,0.066   c-0.01,0.046,0.019,0.091,0.066,0.101l20.701,4.431l-3.625,2.843c-0.037,0.029-0.044,0.083-0.014,0.12   c0.017,0.022,0.042,0.033,0.067,0.033c0.019,0,0.037-0.006,0.053-0.018l3.737-2.931l1.475,0.316l-4.822,2.635   c-0.042,0.023-0.057,0.075-0.034,0.116c0.015,0.028,0.045,0.045,0.075,0.045c0.014,0,0.028-0.004,0.041-0.01l4.997-2.73   l25.615,5.483c0.006,0.002,0.012,0.002,0.018,0.002c0.039,0,0.075-0.027,0.084-0.068c0.01-0.046-0.019-0.091-0.066-0.101   l-25.421-5.441l6.365-3.478l32.115,3.595l-1.212,3.28c-0.015,0.042,0.006,0.086,0.046,0.105c0.033-0.009,0.066-0.018,0.1-0.026   c0.005-0.007,0.012-0.011,0.016-0.02l1.227-3.319l6.901,0.772c0.086-0.032,0.173-0.064,0.26-0.096   c-0.012-0.027-0.032-0.05-0.064-0.054l-7.036-0.788l9.784-26.473l18.489-10.103l4.02,8.108c0.015,0.03,0.045,0.048,0.077,0.048   c0.013,0,0.026-0.003,0.038-0.009c0.043-0.021,0.06-0.073,0.039-0.115l-4.023-8.114l5.88-3.213l9.28,12.901   c0.036-0.048,0.07-0.097,0.106-0.146l-9.251-12.859l5.895-6.433l4.974,1.152l-0.587,16.701c0.061-0.087,0.12-0.176,0.181-0.263   l0.576-16.398l7.466,1.729c0.022-0.054,0.046-0.107,0.069-0.16l-7.528-1.744l0.242-6.901l13.029-14.218   c0.009-0.094,0.018-0.189,0.027-0.283l-13.047,14.238l0.596-16.978L158.982,85.724z M153.398,83.886l5.391,1.775l-5.61,4.456   L153.398,83.886z M67.866,159.85l-1.53-0.327l4.32-3.388c0.027-0.022,0.039-0.057,0.029-0.091   c-0.006-0.021-0.021-0.035-0.038-0.047l3.544,0.397L67.866,159.85z M106.664,159.856l-31.914-3.572l41.644-22.756L106.664,159.856z    M152.153,114.444l-4.847-1.123l5.081-5.545L152.153,114.444z M142.238,137.104c-0.042,0.022-0.059,0.073-0.038,0.115l1.728,3.457   c0.042-0.044,0.083-0.09,0.125-0.134l-1.7-3.399C142.331,137.1,142.28,137.084,142.238,137.104z M20.695,47.348   c0.01,0.004,0.019,0.005,0.029,0.005c0.035,0,0.068-0.022,0.08-0.056l6.674-18.394c-0.097,0.099-0.194,0.198-0.29,0.297   l-6.545,18.038C20.627,47.283,20.65,47.332,20.695,47.348z M10.395,104.649l-3.496-0.085c0.014,0.057,0.027,0.115,0.041,0.172   l3.451,0.083h0.002c0.046,0,0.084-0.037,0.086-0.084C10.479,104.69,10.442,104.65,10.395,104.649z M15.473,100.854   c-0.004,0.047,0.031,0.088,0.079,0.092c0.002,0.001,0.004,0.001,0.007,0.001c0.044,0,0.082-0.034,0.085-0.079   c0.01-0.125,0.416-5.1,0.972-11.999l9.118-0.676c0.047-0.003,0.082-0.044,0.079-0.091c-0.003-0.045-0.041-0.079-0.085-0.079   c-0.002,0-0.004,0-0.006,0.001l-9.092,0.674c0.166-2.056,0.345-4.278,0.53-6.593l8.532,3.984c0.012,0.005,0.024,0.008,0.036,0.008   c0.032,0,0.063-0.018,0.078-0.049c0.02-0.043,0.002-0.094-0.041-0.114l-8.59-4.011c0.145-1.806,0.293-3.666,0.443-5.545   l9.019,8.726c0.017,0.016,0.038,0.024,0.059,0.024c0.022,0,0.045-0.009,0.061-0.026c0.033-0.034,0.032-0.088-0.002-0.121   l-9.12-8.824c0.637-7.995,1.288-16.287,1.721-22.102c0.003-0.047-0.032-0.088-0.079-0.091c-0.047-0.013-0.088,0.032-0.092,0.079   c-0.43,5.78-1.076,14.009-1.71,21.96L9.071,67.87l8.659-14.424c0.024-0.04,0.011-0.093-0.029-0.118   c-0.041-0.024-0.093-0.012-0.117,0.029l-8.638,14.39l-2.026-1.96c-0.016,0.064-0.03,0.129-0.046,0.194l1.981,1.917l-3.459,5.763   c-0.02,0.143-0.038,0.286-0.058,0.429l3.644-6.07l8.477,8.202c-0.152,1.904-0.302,3.79-0.449,5.622l-11.94-5.576   c-0.007,0.06-0.013,0.12-0.02,0.18l11.946,5.578c-0.188,2.348-0.369,4.6-0.537,6.683L4.693,89.581   c0.003,0.057,0.007,0.114,0.01,0.17l11.739-0.87C15.888,95.766,15.483,100.729,15.473,100.854z M109.146,81.252l-49.499,24.698   c-0.042,0.021-0.06,0.073-0.038,0.115c0.015,0.03,0.045,0.047,0.076,0.047c0.013,0,0.026-0.003,0.038-0.009l49.5-24.698   c0.042-0.021,0.059-0.073,0.038-0.115C109.239,81.247,109.188,81.232,109.146,81.252z M23.549,48.749   c0.012,0.035,0.045,0.057,0.081,0.057c0.009,0,0.019-0.002,0.029-0.005l5.004-1.776c0.044-0.016,0.068-0.065,0.052-0.109   c-0.016-0.045-0.065-0.069-0.109-0.052l-5.004,1.776C23.556,48.656,23.533,48.705,23.549,48.749z M52.359,106.757h0.004   c0.045,0,0.083-0.036,0.085-0.082c0.002-0.047-0.034-0.087-0.081-0.089l-11.099-0.509l2.912-7.612l8.455,6.178   c0.015,0.012,0.033,0.017,0.05,0.017c0.026,0,0.052-0.012,0.069-0.035c0.028-0.038,0.019-0.091-0.019-0.119L44.243,98.3   l0.639-1.671l23.573-5.872l-9.705,13.606c-0.028,0.039-0.019,0.092,0.02,0.12c0.015,0.011,0.032,0.016,0.05,0.016   c0.027,0,0.053-0.013,0.07-0.036l9.822-13.77l40.493-10.088c0.046-0.012,0.074-0.058,0.063-0.104   c-0.011-0.046-0.057-0.073-0.104-0.063L68.864,90.477l5.251-7.362l35.077-3.478c0.047-0.005,0.081-0.047,0.077-0.094   c-0.004-0.047-0.046-0.085-0.094-0.077l-34.928,3.463l9.359-13.12l25.551,8.37c0.009,0.003,0.018,0.004,0.027,0.004   c0.036,0,0.069-0.023,0.081-0.059c0.015-0.045-0.01-0.094-0.055-0.108l-25.5-8.353l8.806-12.345c0.027-0.039,0.018-0.092-0.02-0.12   c-0.039-0.026-0.092-0.018-0.12,0.02L83.54,69.609l-20.958-6.865c-0.044-0.014-0.093,0.01-0.108,0.055   c-0.015,0.045,0.01,0.094,0.055,0.108l20.907,6.849l-9.414,13.198l-24.849,2.464l7.79-20.362c0.017-0.044-0.005-0.094-0.049-0.11   c-0.044-0.016-0.094,0.005-0.11,0.049l-7.821,20.442l-10.791,1.07l2.234-7.742c7.227-6.703,15.03-13.919,15.363-14.146   c0.03-0.014,0.051-0.044,0.051-0.078c0-0.047-0.038-0.086-0.086-0.086c-0.105,0-5.222,4.699-15.236,13.989l10.152-35.187   c0.013-0.045-0.013-0.093-0.059-0.106c-0.046-0.015-0.093,0.013-0.106,0.058l-10.231,35.46c-2.272,2.108-4.789,4.446-7.556,7.018   c-0.034,0.032-0.037,0.086-0.004,0.121c0.017,0.018,0.04,0.027,0.063,0.027c0.021,0,0.042-0.008,0.058-0.023   c2.082-1.935,4.668-4.338,7.346-6.822l-2.174,7.534l-5.138,0.509c-0.047,0.005-0.081,0.047-0.077,0.094   c0.004,0.044,0.042,0.077,0.085,0.077c0.003,0,0.006,0,0.008-0.001l5.07-0.503l-1.669,5.785l-3.494-2.553   c-0.038-0.029-0.091-0.02-0.12,0.018c-0.028,0.038-0.019,0.091,0.019,0.119l3.545,2.59l-1.848,6.405l-16.946,4.222   c-0.046,0.012-0.074,0.058-0.062,0.104c0.01,0.039,0.045,0.065,0.083,0.065c0.007,0,0.014-0.001,0.021-0.003l16.849-4.198   l-1.852,6.418l-14.925-0.684c-0.047,0.003-0.087,0.035-0.089,0.082c-0.002,0.047,0.034,0.087,0.081,0.089l14.884,0.683   l-9.008,31.22c0.044,0.053,0.088,0.105,0.133,0.158l9.051-31.369l8.414,0.386l-13.517,35.329c0.044,0.045,0.088,0.09,0.132,0.135   l13.565-35.455L52.359,106.757z M44.1,98.195l-1.4-1.023l1.98-0.493L44.1,98.195z M49.104,85.596l24.785-2.458l-5.281,7.403   l-23.651,5.892L49.104,85.596z M38.14,86.683l10.774-1.068l-4.158,10.869L42.52,97.04l-6.086-4.447L38.14,86.683z M36.384,92.768   l5.92,4.326l-7.724,1.924L36.384,92.768z M32.658,105.682l1.868-6.474l7.959-1.983l1.553,1.135l-2.949,7.708L32.658,105.682z    M14.925,108.201c-0.048-0.007-0.09,0.025-0.097,0.072l-1.935,12.717c0.044,0.09,0.087,0.181,0.132,0.27l1.972-12.962   C15.004,108.252,14.972,108.209,14.925,108.201z"></path>
	<g id="block_1_">
		<path id="block01_2_" class="st31" d="M136.622,29.397l-2.126,0.736l2.142,0.826l2.142-0.826L136.622,29.397z M133.976,33.659    l2.383,0.949v-3.099l-2.383-0.949V33.659z M136.949,31.474v3.134l2.326-0.942V30.56L136.949,31.474z"></path>
		<path id="block02_1_" class="st31" d="M113.445,32.003l-2.126,0.736l2.142,0.826l2.142-0.826L113.445,32.003z M110.798,36.265    l2.383,0.949v-3.099l-2.383-0.949V36.265z M113.771,34.08v3.134l2.326-0.942v-3.106L113.771,34.08z"></path>
		<path id="block03_1_" class="st31" d="M94.548,51.661l-2.126,0.736l2.142,0.826l2.142-0.826L94.548,51.661z M91.902,55.923    l2.383,0.949v-3.099l-2.383-0.949V55.923z M94.875,53.738v3.134l2.326-0.942v-3.106L94.875,53.738z"></path>
		<path id="block04" class="st31" d="M51.792,37.638l-2.126,0.736l2.142,0.826l2.142-0.826L51.792,37.638z M49.146,41.899    l2.383,0.949V39.75L49.146,38.8V41.899z M52.119,39.715v3.134l2.326-0.942V38.8L52.119,39.715z"></path>
		<path id="block05" class="st31" d="M29.155,84.857l-2.126,0.736l2.142,0.826l2.142-0.826L29.155,84.857z M26.508,89.118    l2.383,0.949v-3.099l-2.383-0.949V89.118z M29.481,86.934v3.134l2.326-0.942v-3.106L29.481,86.934z"></path>
		<path id="block06" class="st31" d="M20.074,48.011l-2.126,0.736l2.142,0.826l2.142-0.826L20.074,48.011z M17.427,52.273    l2.383,0.949v-3.099l-2.383-0.949V52.273z M20.4,50.088v3.134l2.326-0.942v-3.106L20.4,50.088z"></path>
		<path id="block07_2_" class="st31" d="M95.666,132.938l-2.126,0.736l2.142,0.826l2.142-0.826L95.666,132.938z M93.019,137.2    l2.383,0.949v-3.099l-2.383-0.949V137.2z M95.992,135.015v3.134l2.326-0.942v-3.106L95.992,135.015z"></path>
		<path id="block08" class="st31" d="M58.817,59.675l-2.126,0.736l2.142,0.826l2.142-0.826L58.817,59.675z M56.17,63.936    l2.383,0.949v-3.099l-2.383-0.949V63.936z M59.143,61.752v3.134l2.326-0.942v-3.106L59.143,61.752z"></path>
		<path id="block09" class="st31" d="M55.901,104.143l-2.126,0.736l2.142,0.826l2.142-0.826L55.901,104.143z M53.254,108.404    l2.383,0.949v-3.099l-2.383-0.949V108.404z M56.227,106.22v3.134l2.326-0.942v-3.106L56.227,106.22z"></path>
		<path id="block10" class="st31" d="M140.106,132.261l-2.126,0.736l2.142,0.826l2.142-0.826L140.106,132.261z M137.46,136.523    l2.383,0.949v-3.099l-2.383-0.949V136.523z M140.433,134.338v3.134l2.326-0.942v-3.106L140.433,134.338z"></path>
		<path id="block11" class="st31" d="M127.892,106.326l-2.126,0.736l2.142,0.826l2.142-0.826L127.892,106.326z M125.246,110.588    l2.383,0.949v-3.099l-2.383-0.949V110.588z M128.219,108.403v3.134l2.326-0.942v-3.106L128.219,108.403z"></path>
		<path id="block12" class="st31" d="M135.654,76.301l-2.126,0.736l2.142,0.826l2.142-0.826L135.654,76.301z M133.008,80.563    l2.383,0.949v-3.099l-2.383-0.949V80.563z M135.981,78.378v3.134l2.326-0.942v-3.106L135.981,78.378z"></path>
		<path id="block13" class="st31" d="M153.562,56.532l-2.126,0.736l2.142,0.826l2.142-0.826L153.562,56.532z M150.916,60.793    l2.383,0.949v-3.099l-2.383-0.949V60.793z M153.889,58.608v3.134l2.326-0.942v-3.106L153.889,58.608z"></path>
		<path id="block14" class="st31" d="M13.948,102.198l-2.126,0.736l2.142,0.826l2.142-0.826L13.948,102.198z M11.301,106.46    l2.383,0.949v-3.099l-2.383-0.949V106.46z M14.274,104.275v3.134l2.326-0.942v-3.106L14.274,104.275z"></path>
		<g>
			<path class="st31" d="M247.472,89.39c2.884,3.365,4.326,7.313,4.326,11.846c0,5.768-2.112,10.352-6.334,13.75     c-4.223,3.399-10.112,5.099-17.665,5.099h-33.166V47.779h31.415c4.944,0,9.234,0.823,12.875,2.472     c3.639,1.648,6.419,3.914,8.343,6.798c1.922,2.884,2.884,6.112,2.884,9.683c0,4.119-1.254,7.57-3.76,10.351     c-2.507,2.781-6.025,4.859-10.558,6.231C240.708,84,244.588,86.027,247.472,89.39z M212.246,76.824h11.536     c2.54,0,4.583-0.652,6.128-1.957c1.545-1.304,2.317-3.227,2.317-5.769c0-2.608-0.772-4.583-2.317-5.922s-3.589-2.009-6.128-2.009     h-11.536V76.824z M231.507,104.532c1.579-1.442,2.369-3.433,2.369-5.975c0-2.539-0.756-4.565-2.266-6.076     c-1.511-1.51-3.468-2.267-5.871-2.267h-13.493v16.48h13.287C227.936,106.695,229.927,105.973,231.507,104.532z"></path>
			<path class="st31" d="M261.377,41.392c1.991-1.99,4.429-2.986,7.313-2.986s5.321,0.996,7.313,2.986     c1.991,1.993,2.987,4.465,2.987,7.416c0,2.885-0.996,5.322-2.987,7.313c-1.992,1.992-4.429,2.987-7.313,2.987     s-5.322-0.995-7.313-2.987c-1.992-1.991-2.987-4.429-2.987-7.313C258.39,45.857,259.385,43.385,261.377,41.392z M277.548,62.611     v57.474h-17.613V62.611H277.548z"></path>
			<path class="st31" d="M319.572,105.15v14.935h-8.961c-6.455,0-11.451-1.424-14.986-4.274c-3.537-2.849-5.305-7.741-5.305-14.678     V77.237h-5.357V62.611h5.357V48.602h17.613v14.009h11.535v14.626h-11.535v23.896c0,1.375,0.412,2.387,1.234,3.039     c0.824,0.653,2.197,0.979,4.121,0.979H319.572z"></path>
			<path class="st31" d="M379.62,47.779v13.39h-19.775v58.916h-17.613V61.168h-19.673v-13.39H379.62z"></path>
			<path class="st31" d="M442.654,62.611v57.474h-17.613v-8.446c-1.717,2.816-4.068,5.031-7.056,6.644     c-2.986,1.614-6.438,2.421-10.351,2.421c-4.326,0-8.155-0.979-11.485-2.936c-3.331-1.957-5.939-4.79-7.827-8.498     c-1.89-3.708-2.833-8.067-2.833-13.081V62.611h17.51V93.82c0,3.708,0.979,6.575,2.936,8.601s4.651,3.038,8.086,3.038     c3.433,0,6.128-1.013,8.085-3.038s2.936-4.893,2.936-8.601V62.611H442.654z"></path>
			<path class="st31" d="M501.622,65.752c4.018,2.507,7.192,5.991,9.527,10.454c2.334,4.464,3.502,9.545,3.502,15.244     c0,5.7-1.168,10.781-3.502,15.244c-2.335,4.464-5.51,7.931-9.527,10.402c-4.017,2.473-8.395,3.708-13.132,3.708     c-7.143,0-12.772-3.021-16.893-9.063v8.343h-17.613v-76.22h17.613v26.265c3.914-5.424,9.544-8.137,16.893-8.137     C493.228,61.992,497.605,63.246,501.622,65.752z M478.087,78.832c-1.924,1.065-3.486,2.645-4.687,4.738     c-1.202,2.096-1.803,4.687-1.803,7.776s0.601,5.701,1.803,7.828c1.2,2.129,2.781,3.726,4.738,4.79     c1.957,1.065,3.965,1.596,6.025,1.596c2.127,0,4.153-0.53,6.077-1.596c1.921-1.064,3.483-2.643,4.687-4.738     c1.2-2.094,1.802-4.687,1.802-7.776s-0.602-5.699-1.802-7.828c-1.203-2.128-2.781-3.725-4.738-4.79     c-1.957-1.063-3.966-1.596-6.025-1.596C482.034,77.237,480.009,77.769,478.087,78.832z"></path>
			<path class="st31" d="M575.112,97.116h-39.552c0.343,2.541,1.476,4.619,3.398,6.231c1.922,1.614,4.326,2.42,7.21,2.42     c2.197,0,3.845-0.325,4.944-0.979c1.098-0.651,2.266-1.732,3.502-3.244h19.055c-1.647,5.768-4.943,10.421-9.888,13.956     c-4.944,3.538-10.815,5.305-17.613,5.305c-5.494,0-10.421-1.2-14.78-3.604c-4.361-2.403-7.761-5.854-10.197-10.352     c-2.438-4.497-3.656-9.698-3.656-15.604c0-5.905,1.219-11.072,3.656-15.502c2.437-4.429,5.819-7.828,10.146-10.196     c4.326-2.369,9.235-3.554,14.729-3.554c5.562,0,10.573,1.15,15.038,3.45c4.463,2.302,7.982,5.683,10.558,10.146     c2.574,4.465,3.862,9.785,3.862,15.965C575.524,93.545,575.386,95.4,575.112,97.116z M557.19,86.094     c-0.275-2.678-1.442-4.856-3.502-6.54c-2.061-1.682-4.602-2.523-7.622-2.523c-2.61,0-4.877,0.842-6.798,2.523     c-1.924,1.684-3.126,3.862-3.605,6.54H557.19z"></path>
		</g>
	</g>
	<path id="symbol_1_" class="st31" d="M133.257,37.519C120.516,24.778,103.576,17.76,85.555,17.76   c-18.019,0-34.959,7.016-47.704,19.757C25.11,50.26,18.095,67.2,18.095,85.221c0,18.021,7.016,34.961,19.757,47.704   c12.745,12.741,29.685,19.757,47.704,19.757c18.019,0,34.959-7.016,47.702-19.757c12.741-12.743,19.758-29.685,19.758-47.704   C153.016,67.2,145.998,50.26,133.257,37.519z M129.023,128.688c-11.611,11.611-27.049,18.005-43.468,18.005   c-16.42,0-31.858-6.394-43.467-18.005c-11.611-11.613-18.007-27.049-18.007-43.467c0-16.419,6.396-31.854,18.007-43.468   c11.609-11.611,27.047-18.005,43.467-18.005c16.419,0,31.856,6.394,43.468,18.005c11.611,11.611,18.005,27.049,18.005,43.468   C147.028,101.639,140.634,117.077,129.023,128.688z M131.157,60.498c-9.093-16.742-26.567-27.141-45.602-27.141   c-1.651,0-2.993,1.342-2.993,2.993c0,1.651,1.342,2.995,2.993,2.995c16.836,0,32.294,9.201,40.341,24.011   c0.524,0.965,1.532,1.565,2.632,1.565c0.496,0,0.99-0.125,1.428-0.365c0.702-0.381,1.214-1.014,1.442-1.781   C131.625,62.008,131.539,61.198,131.157,60.498z M119.571,81.065L71.477,51.688c-1.618-0.877-3.528-0.841-5.107,0.104   c-1.581,0.942-2.524,2.601-2.524,4.441v58.488c0,1.842,0.944,3.503,2.524,4.441c0.804,0.48,1.718,0.733,2.642,0.733   c0.849,0,1.702-0.218,2.55-0.679l47.99-29.144c1.63-0.914,2.642-2.642,2.642-4.509C122.193,83.701,121.189,81.979,119.571,81.065z    M69.833,113.268V57.699l45.615,27.859L69.833,113.268z"></path>
</g>
</svg>